<svg width="129" height="31" viewBox="0 0 129 31" fill="none" xmlns="http://www.w3.org/2000/svg">
<path d="M45.65 24H41.1L35.5 15.9V24H31.5V6.5H35.5V14.1L40.85 6.5H45.4L39.5 15.025L45.65 24ZM47.0244 10V6.5H50.7744V10H47.0244ZM47.0244 24V11.5H50.7744V24H47.0244ZM60.5186 11.15C61.7019 11.15 62.6602 11.5917 63.3936 12.475C64.1436 13.3417 64.5186 14.5417 64.5186 16.075V24H60.7686V16.4C60.7686 15.8 60.6102 15.35 60.2936 15.05C59.9936 14.75 59.5936 14.6 59.0936 14.6C57.8769 14.6 57.2686 15.3 57.2686 16.7V24H53.5186V11.5H57.2686V12.65C57.9186 11.65 59.0019 11.15 60.5186 11.15ZM77.6463 22.45C76.363 23.7167 74.7963 24.35 72.9463 24.35C71.0963 24.35 69.5296 23.7167 68.2463 22.45C66.963 21.1667 66.3213 19.6 66.3213 17.75C66.3213 15.9 66.963 14.3417 68.2463 13.075C69.5296 11.7917 71.0963 11.15 72.9463 11.15C74.7963 11.15 76.363 11.7917 77.6463 13.075C78.9296 14.3417 79.5713 15.9 79.5713 17.75C79.5713 19.6 78.9296 21.1667 77.6463 22.45ZM70.8963 19.875C71.4463 20.425 72.1296 20.7 72.9463 20.7C73.763 20.7 74.4463 20.425 74.9963 19.875C75.5463 19.325 75.8213 18.6167 75.8213 17.75C75.8213 16.8833 75.5463 16.175 74.9963 15.625C74.4463 15.075 73.763 14.8 72.9463 14.8C72.1296 14.8 71.4463 15.075 70.8963 15.625C70.3463 16.175 70.0713 16.8833 70.0713 17.75C70.0713 18.6167 70.3463 19.325 70.8963 19.875Z" fill="#3657CB"/>
<path d="M83.1674 12.4C84.1674 11.5667 85.4007 11.15 86.8674 11.15C88.3341 11.15 89.5674 11.5833 90.5674 12.45C91.5674 13.3 92.0674 14.525 92.0674 16.125V24H88.4174V23.025C87.6507 23.9083 86.5757 24.35 85.1924 24.35C84.0257 24.35 83.0424 24.0083 82.2424 23.325C81.459 22.6417 81.0674 21.6833 81.0674 20.45C81.0674 19.2167 81.459 18.2583 82.2424 17.575C83.0424 16.8917 84.0257 16.55 85.1924 16.55C86.4924 16.55 87.5674 16.8667 88.4174 17.5V16.375C88.4174 15.1917 87.9007 14.6 86.8674 14.6C86.3674 14.6 85.984 14.7167 85.7174 14.95C85.4507 15.1833 85.3174 15.4917 85.3174 15.875H81.6674C81.6674 14.3917 82.1674 13.2333 83.1674 12.4ZM86.5174 21.7C87.1174 21.7 87.584 21.5833 87.9174 21.35C88.2507 21.1167 88.4174 20.8167 88.4174 20.45C88.4174 20.0667 88.2507 19.7667 87.9174 19.55C87.584 19.3167 87.1174 19.2 86.5174 19.2C85.9674 19.2 85.5424 19.3167 85.2424 19.55C84.959 19.7667 84.8174 20.0667 84.8174 20.45C84.8174 20.8333 84.959 21.1417 85.2424 21.375C85.5424 21.5917 85.9674 21.7 86.5174 21.7ZM98.2354 13.475C98.4354 12.7583 98.827 12.2083 99.4104 11.825C99.9937 11.4417 100.685 11.25 101.485 11.25V15.5C100.619 15.3667 99.8604 15.5083 99.2104 15.925C98.5604 16.3417 98.2354 17.0667 98.2354 18.1V24H94.4854V11.5H98.2354V13.475ZM106.159 19.25C106.576 20.6333 107.551 21.325 109.084 21.325C109.534 21.325 109.959 21.2417 110.359 21.075C110.759 20.8917 111.051 20.6583 111.234 20.375L114.884 20.35C114.484 21.65 113.768 22.6417 112.734 23.325C111.701 24.0083 110.468 24.35 109.034 24.35C107.001 24.35 105.359 23.725 104.109 22.475C102.859 21.225 102.234 19.65 102.234 17.75C102.234 15.8667 102.859 14.3 104.109 13.05C105.376 11.7833 106.984 11.15 108.934 11.15C110.751 11.15 112.251 11.775 113.434 13.025C114.634 14.275 115.234 15.85 115.234 17.75C115.234 18.2833 115.184 18.7833 115.084 19.25H106.159ZM106.134 16.4H111.509C111.143 15.1167 110.276 14.475 108.909 14.475C107.476 14.475 106.551 15.1167 106.134 16.4ZM118.788 12.4C119.788 11.5667 121.021 11.15 122.488 11.15C123.954 11.15 125.188 11.5833 126.188 12.45C127.188 13.3 127.688 14.525 127.688 16.125V24H124.038V23.025C123.271 23.9083 122.196 24.35 120.813 24.35C119.646 24.35 118.663 24.0083 117.863 23.325C117.079 22.6417 116.688 21.6833 116.688 20.45C116.688 19.2167 117.079 18.2583 117.863 17.575C118.663 16.8917 119.646 16.55 120.813 16.55C122.113 16.55 123.188 16.8667 124.038 17.5V16.375C124.038 15.1917 123.521 14.6 122.488 14.6C121.988 14.6 121.604 14.7167 121.338 14.95C121.071 15.1833 120.938 15.4917 120.938 15.875H117.288C117.288 14.3917 117.788 13.2333 118.788 12.4ZM122.138 21.7C122.738 21.7 123.204 21.5833 123.538 21.35C123.871 21.1167 124.038 20.8167 124.038 20.45C124.038 20.0667 123.871 19.7667 123.538 19.55C123.204 19.3167 122.738 19.2 122.138 19.2C121.588 19.2 121.163 19.3167 120.863 19.55C120.579 19.7667 120.438 20.0667 120.438 20.45C120.438 20.8333 120.579 21.1417 120.863 21.375C121.163 21.5917 121.588 21.7 122.138 21.7Z" fill="white"/>
<path d="M13.2656 9.49154C13.2656 8.0958 12.1301 6.9603 10.7344 6.9603C9.33863 6.9603 8.20312 8.0958 8.20312 9.49154C8.20312 10.8873 9.33863 12.0228 10.7344 12.0228C12.1301 12.0228 13.2656 10.8873 13.2656 9.49154ZM9.14062 9.49154C9.14062 8.61273 9.85556 7.8978 10.7344 7.8978C11.6132 7.8978 12.3281 8.61273 12.3281 9.49154C12.3281 10.3704 11.6132 11.0853 10.7344 11.0853C9.85556 11.0853 9.14062 10.3704 9.14062 9.49154Z" fill="white"/>
<path d="M6.64445 15.5526C7.24675 15.2458 7.69347 14.7227 7.90239 14.0798C8.11126 13.4369 8.05731 12.7512 7.75042 12.1489C7.44353 11.5466 6.92045 11.0999 6.27761 10.891C5.63467 10.6821 4.94894 10.7361 4.34669 11.043C3.74439 11.3498 3.29767 11.8729 3.08875 12.5158C2.87987 13.1587 2.93383 13.8444 3.24072 14.4467C3.54761 15.049 4.07069 15.4957 4.71353 15.7046C4.97097 15.7882 5.2352 15.8297 5.49822 15.8297C5.89211 15.8298 6.28328 15.7367 6.64445 15.5526ZM5.00322 14.813C4.5985 14.6815 4.2692 14.4003 4.07598 14.0211C3.88276 13.6419 3.84878 13.2102 3.98031 12.8055C4.1118 12.4008 4.39305 12.0715 4.77222 11.8783C4.99961 11.7624 5.24584 11.7038 5.49386 11.7038C5.65942 11.7038 5.82583 11.73 5.98787 11.7826C6.39259 11.9141 6.72189 12.1953 6.91511 12.5745C7.10833 12.9537 7.14231 13.3854 7.01078 13.7901C6.8793 14.1948 6.59805 14.5241 6.21887 14.7173C5.83965 14.9105 5.40794 14.9445 5.00322 14.813Z" fill="white"/>
<path d="M6.00875 21.5041C6.45707 21.8298 6.97738 21.9866 7.49314 21.9866C8.27652 21.9866 9.04958 21.625 9.54421 20.9442C9.94161 20.3972 10.1022 19.7282 9.99641 19.0604C9.89061 18.3927 9.53118 17.8061 8.98419 17.4087C8.43721 17.0113 7.76835 16.8507 7.10047 16.9565C6.43269 17.0623 5.8461 17.4217 5.44874 17.9687C4.62847 19.0978 4.87968 20.6838 6.00875 21.5041ZM6.20727 18.5197C6.45744 18.1754 6.82677 17.949 7.24719 17.8824C7.33161 17.8691 7.41604 17.8625 7.49989 17.8625C7.83364 17.8625 8.15802 17.9672 8.43322 18.1672C9.14413 18.6837 9.30229 19.6822 8.78577 20.3931C8.26925 21.104 7.27072 21.2622 6.55982 20.7457C5.84891 20.2292 5.69075 19.2306 6.20727 18.5197Z" fill="white"/>
<path d="M13.9754 21.9866C14.4912 21.9866 15.0117 21.8298 15.4599 21.5042C16.589 20.6838 16.8402 19.0978 16.0198 17.9687C15.6224 17.4218 15.0358 17.0623 14.3681 16.9565C13.7003 16.8508 13.0314 17.0114 12.4844 17.4087C11.9374 17.8061 11.578 18.3927 11.4722 19.0605C11.3664 19.7282 11.527 20.3972 11.9244 20.9442C12.4191 21.6251 13.192 21.9866 13.9754 21.9866ZM13.0354 18.1672C13.3798 17.917 13.8008 17.8158 14.2214 17.8825C14.6418 17.9491 15.0111 18.1754 15.2613 18.5198C15.7778 19.2307 15.6197 20.2292 14.9088 20.7457C14.1979 21.2622 13.1993 21.1041 12.6828 20.3932C12.1663 19.6823 12.3245 18.6837 13.0354 18.1672Z" fill="white"/>
<path d="M15.1913 10.8909C14.5484 11.0999 14.0253 11.5466 13.7185 12.1489C13.4116 12.7512 13.3577 13.4369 13.5665 14.0798C13.7755 14.7227 14.2222 15.2458 14.8245 15.5526C15.1856 15.7366 15.5768 15.8297 15.9707 15.8297C16.2337 15.8297 16.4981 15.7882 16.7554 15.7046C17.3983 15.4957 17.9214 15.049 18.2282 14.4467C18.5351 13.8444 18.5891 13.1587 18.3802 12.5158C18.1713 11.8729 17.7245 11.3498 17.1222 11.043C16.52 10.7361 15.8342 10.6822 15.1913 10.8909ZM16.6967 11.8783C17.0758 12.0715 17.3571 12.4007 17.4886 12.8055C17.6201 13.2102 17.5861 13.6419 17.3929 14.0211C17.1997 14.4003 16.8704 14.6815 16.4657 14.813C16.0609 14.9445 15.6292 14.9106 15.2501 14.7173C14.8709 14.5241 14.5896 14.1949 14.4581 13.7901C14.3266 13.3854 14.3606 12.9537 14.5538 12.5745C14.747 12.1953 15.0763 11.9141 15.4811 11.7826C15.6431 11.7299 15.8095 11.7038 15.9751 11.7038C16.223 11.7038 16.4693 11.7624 16.6967 11.8783Z" fill="white"/>
<path d="M12.3418 15C12.3418 14.1136 11.6208 13.3925 10.7344 13.3925C9.84803 13.3925 9.12695 14.1136 9.12695 15C9.12695 15.8864 9.84803 16.6074 10.7344 16.6074C11.6208 16.6074 12.3418 15.8864 12.3418 15ZM10.0645 15C10.0645 14.6306 10.365 14.3301 10.7344 14.3301C11.1038 14.3301 11.4043 14.6306 11.4043 15C11.4043 15.3694 11.1038 15.6699 10.7344 15.6699C10.365 15.6699 10.0645 15.3694 10.0645 15Z" fill="white"/>
<path d="M23.8627 23.7073C23.3326 23.1772 22.6279 22.8853 21.8783 22.8853C21.1287 22.8853 20.424 23.1772 19.8939 23.7073C19.1913 24.4099 18.2571 24.7969 17.2634 24.7969H15.1344C16.3078 24.2693 17.3877 23.5273 18.3247 22.5903C20.3522 20.5629 21.4688 17.8673 21.4688 15C21.4688 12.9028 20.8638 10.871 19.7192 9.12427C19.5774 8.9077 19.2868 8.84719 19.0702 8.98908C18.8537 9.13097 18.7932 9.42155 18.9351 9.63806C19.9793 11.2317 20.5312 13.0859 20.5312 15C20.5312 20.402 16.1364 24.7969 10.7344 24.7969C5.33236 24.7969 0.9375 20.402 0.9375 15C0.9375 9.59798 5.33236 5.20312 10.7344 5.20312C12.6517 5.20312 14.5086 5.75681 16.104 6.80438C16.3204 6.9465 16.611 6.88627 16.7531 6.6698C16.8952 6.45338 16.835 6.1628 16.6185 6.02067C14.8698 4.87252 12.8351 4.26562 10.7344 4.26562C7.86713 4.26562 5.17148 5.38219 3.14405 7.40967C1.11661 9.43716 0 12.1328 0 15C0 17.8673 1.11656 20.5629 3.14405 22.5904C5.17148 24.6178 7.86713 25.7344 10.7344 25.7344H17.2634C18.5075 25.7344 19.6771 25.2499 20.5568 24.3702C20.9098 24.0172 21.3791 23.8228 21.8783 23.8228C22.3775 23.8228 22.8468 24.0172 23.1998 24.3702C23.3828 24.5532 23.6796 24.5532 23.8627 24.3702C24.0458 24.1871 24.0458 23.8903 23.8627 23.7073Z" fill="white"/>
<path d="M17.9968 8.21297C18.1201 8.21297 18.241 8.16328 18.3282 8.0761C18.4154 7.98844 18.4656 7.86797 18.4656 7.74469C18.4656 7.62094 18.4154 7.50047 18.3282 7.41281C18.241 7.32563 18.1201 7.27594 17.9968 7.27594C17.8735 7.27594 17.7526 7.32563 17.6654 7.41281C17.5782 7.50047 17.5281 7.62094 17.5281 7.74469C17.5281 7.86797 17.5782 7.98891 17.6654 8.0761C17.7526 8.16328 17.8735 8.21297 17.9968 8.21297Z" fill="white"/>
</svg>
